<svg xmlns="http://www.w3.org/2000/svg" xmlns:xlink="http://www.w3.org/1999/xlink" viewBox="0 0 1858.96 812.33"><defs><style>.cls-1{fill:url(#radial-gradient);}</style><radialGradient id="radial-gradient" cx="929.48" cy="406.16" fx="224.14574580731528" fy="-458.99348110643837" r="1883.04" gradientTransform="matrix(0.36, -0.93, 0.77, 0.3, 283.6, 1153.43)" gradientUnits="userSpaceOnUse"><stop offset="0.09" stop-color="#01a9b8"/><stop offset="0.88" stop-color="#fdfa03"/></radialGradient></defs><title>Asset 3</title><g id="Layer_2" data-name="Layer 2"><g id="Layer_1-2" data-name="Layer 1"><path class="cls-1" d="M430.9,15.08l333,767.2H627.5L360.91,163.42l60.9-148.34h9.09M440.8,0H411.7L90.53,782.28H0v15.08H203.69V782.28H107.78L227.41,493.45H486.06l125,288.83H510.84v15.08H873V782.28H780.28L440.8,0Zm-208,478.42,120.7-294.16L480.67,478.42ZM1734.94,52.36c10,2.88,19.29,5.69,27.88,8.4,15.28,4.81,28,7.15,39,7.15,12.55,0,22.16-1.75,29.39-5.35a27.36,27.36,0,0,0,6.2-4.26V202.73q-6.37-16.42-13.63-33.52a321.74,321.74,0,0,0-45.23-75.73,220.38,220.38,0,0,0-43.63-41.12m-290.83,13.3c-19.48,18.13-35.13,40.26-46.71,66.12-16.07,35.86-26.46,79-30.9,128.16-4.32,48-6.51,101.17-6.51,158.09,0,75.26,4.42,138.49,13.15,187.93,8.93,50.58,23.25,91.58,42.56,121.84a179.49,179.49,0,0,0,28.43,34.59,400.38,400.38,0,0,1-112-75.67c-35.46-34.07-64.28-74.77-85.66-121-21.24-45.9-32-96.33-32-149.88,0-58.41,12-112,35.58-159.15,23.82-47.65,54.78-88.93,92-122.7a416.61,416.61,0,0,1,102-68.37m399.77,550.61V772.54a38.59,38.59,0,0,0-6.91-5.73l0,0h0c-7.59-4.87-17.65-7.23-30.76-7.23-10.13,0-22.43,2.13-37.61,6.52-13.33,3.86-29,8.18-46.55,12.83l-2.53.66a259.52,259.52,0,0,0,52.36-42.49,316.21,316.21,0,0,0,53.2-76.35,382.84,382.84,0,0,0,18.85-44.45M1602.47,13q-69,0-140.64,28.55A427.65,427.65,0,0,0,1332,122.86q-58.2,52.79-95.37,127.13t-37.17,165.89q0,84,33.4,156.21t88.89,125.51q55.48,53.32,128.78,84a389.92,389.92,0,0,0,152,30.7,352.33,352.33,0,0,0,65.73-5.93q31.24-5.94,57.66-12.92t46.89-12.93q20.46-5.91,33.41-5.93,15.08,0,22.63,4.85t12.94,17.78H1859V568.86h-17.23A363.77,363.77,0,0,1,1811.54,654a300,300,0,0,1-50.64,72.72,243.71,243.71,0,0,1-69.52,51.18q-39.33,19.38-87.83,19.38-60.37,0-104-17.23t-71.13-60.33q-27.48-43.08-40.42-116.35T1375.07,418q0-85.09,6.45-156.74T1411.16,138q23.16-51.72,68.44-80.8t124-29.1q58.18,0,97.53,21t65.74,53.86a305.39,305.39,0,0,1,43.1,72.18q16.69,39.34,28.57,74.88h14V30.2h-17.25q-3.23,15.12-10.77,18.87t-22.65,3.76q-14,0-34.49-6.46T1721.56,32.9q-25.33-7-55-13.46A301.41,301.41,0,0,0,1602.47,13Z"/></g></g></svg>