<svg xmlns="http://www.w3.org/2000/svg" viewBox="0 0 4310.48 2662.97"><defs><style>.cls-1{fill:#fff;}</style></defs><title>JL-logo</title><g id="Layer_2" data-name="Layer 2"><g id="Layer_1-2" data-name="Layer 1"><path class="cls-1" d="M4059.83,190.54c.48,101.4-10.76,717.37-335,1440.23-71.36,72-514.87,499.63-1255.31,781.48C2321.28,2413,1073.61,2388.6,0,1398.32,938,2420,2172.26,2467.66,2307.49,2469.77A3810.77,3810.77,0,0,1,1261.65,2660c1385.69,59.26,2292.11-779.79,2389.33-874a3810.85,3810.85,0,0,1-605.07,874C4067.62,1722,4115.24,487.76,4117.36,352.54a3810.27,3810.27,0,0,1,190.25,1045.78c23-539.81-95.3-1023.44-247.73-1398.32,0,0,1.11,87-.05,190.54"/></g></g></svg>