<?xml version="1.0" encoding="iso-8859-1"?>
<!-- Generator: Adobe Illustrator 19.1.0, SVG Export Plug-In . SVG Version: 6.00 Build 0)  -->
<!DOCTYPE svg PUBLIC "-//W3C//DTD SVG 1.1//EN" "http://www.w3.org/Graphics/SVG/1.1/DTD/svg11.dtd">
<svg version="1.1" id="Layer_1" xmlns="http://www.w3.org/2000/svg" xmlns:xlink="http://www.w3.org/1999/xlink" x="0px" y="0px"
	 viewBox="0 0 1000 1000" style="enable-background:new 0 0 1000 1000;" xml:space="preserve">
<g>
	<g>
		<path style="fill:#006355;" d="M550,520h75.595v7.257H550V520z"/>
		<path style="fill:#006355;" d="M553.628,570.269h7.711v46.113h15.27v7.711h-22.981V570.269z"/>
		<path style="fill:#006355;" d="M581.825,570.269h7.71v53.824h-7.71V570.269z"/>
		<path style="fill:#006355;" d="M596.717,570.269h7.409l11.642,32.43h0.151v-32.43h7.711v53.824h-7.257l-11.793-32.355h-0.151
			v32.355h-7.711V570.269z"/>
		<path style="fill:#006355;" d="M630.582,570.269h11.415c4.384,0,7.735,1.222,10.054,3.666c2.317,2.445,3.477,5.859,3.477,10.243
			v25.173c0,5.04-1.222,8.757-3.666,11.15c-2.445,2.394-5.961,3.591-10.546,3.591h-10.734V570.269z M638.293,616.835h3.553
			c2.166,0,3.704-0.541,4.611-1.625c0.907-1.083,1.361-2.784,1.361-5.102v-25.93c0-2.117-0.428-3.753-1.285-4.914
			c-0.858-1.158-2.419-1.738-4.687-1.738h-3.553V616.835z"/>
		<path style="fill:#006355;" d="M662.786,570.269h7.408l9.903,28.5h0.151l9.828-28.5h7.484v53.824h-7.711V591.36h-0.151
			l-7.635,23.132h-3.856l-7.56-23.132h-0.151v32.733h-7.71V570.269z"/>
		<path style="fill:#006355;" d="M713.359,570.269h6.425l12.02,53.824h-7.711l-2.268-11.566h-10.507l-2.268,11.566h-7.711
			L713.359,570.269z M716.609,585.766h-0.151l-3.78,19.503h7.711L716.609,585.766z"/>
		<path style="fill:#006355;" d="M735.583,570.269h12.398c9.072,0,13.606,5.267,13.606,15.799c0,3.125-0.491,5.809-1.474,8.051
			c-0.981,2.243-2.709,4.044-5.177,5.405l8.316,24.569h-8.166l-7.181-22.981h-4.612v22.981h-7.71V570.269z M743.293,594.308h4.385
			c1.361,0,2.444-0.189,3.25-0.567s1.423-0.919,1.853-1.625c0.427-0.705,0.719-1.575,0.869-2.608
			c0.152-1.032,0.226-2.23,0.226-3.591c0-1.361-0.074-2.557-0.226-3.591c-0.15-1.033-0.465-1.915-0.945-2.646
			c-0.478-0.73-1.146-1.272-2.003-1.625c-0.857-0.352-1.991-0.529-3.402-0.529h-4.007V594.308z"/>
		<path style="fill:#006355;" d="M767.786,570.269h7.711v24.569h0.151l11.264-24.569h7.71l-10.507,21.545l12.473,32.279h-8.165
			l-8.768-23.888l-4.158,7.786v16.102h-7.711V570.269z"/>
		<path style="fill:#006355;" d="M553.628,649.792h11.415c4.384,0,7.735,1.222,10.054,3.666c2.317,2.445,3.477,5.859,3.477,10.243
			v25.173c0,5.04-1.222,8.757-3.666,11.15c-2.445,2.394-5.961,3.591-10.546,3.591h-10.734V649.792z M561.339,696.359h3.553
			c2.166,0,3.704-0.541,4.611-1.625c0.907-1.083,1.361-2.784,1.361-5.102v-25.93c0-2.117-0.428-3.753-1.285-4.913
			c-0.858-1.158-2.419-1.738-4.687-1.738h-3.553V696.359z"/>
		<path style="fill:#006355;" d="M585.831,649.792h22.981v7.257h-15.27v15.799h13.305v7.257h-13.305v15.799h15.27v7.711h-22.981
			V649.792z"/>
		<path style="fill:#006355;" d="M638.747,665.289h-7.711v-1.738c0-1.764-0.416-3.289-1.247-4.573
			c-0.832-1.285-2.23-1.928-4.196-1.928c-1.059,0-1.928,0.202-2.608,0.605c-0.681,0.404-1.21,0.92-1.587,1.549
			c-0.379,0.631-0.643,1.361-0.794,2.193c-0.151,0.831-0.226,1.701-0.226,2.608c0,1.059,0.037,1.954,0.113,2.684
			c0.075,0.731,0.264,1.36,0.567,1.89s0.742,0.996,1.323,1.398c0.578,0.404,1.373,0.807,2.381,1.21l5.896,2.343
			c1.712,0.656,3.099,1.424,4.158,2.306c1.057,0.883,1.876,1.916,2.456,3.099c0.578,1.185,0.97,2.545,1.172,4.082
			c0.201,1.538,0.302,3.289,0.302,5.254c0,2.268-0.227,4.373-0.68,6.312c-0.454,1.94-1.198,3.603-2.23,4.989
			c-1.034,1.387-2.408,2.483-4.12,3.288c-1.714,0.806-3.806,1.21-6.275,1.21c-1.865,0-3.604-0.328-5.215-0.983
			c-1.614-0.654-2.999-1.55-4.158-2.683c-1.16-1.134-2.079-2.482-2.76-4.045c-0.68-1.561-1.02-3.25-1.02-5.065v-2.873H620v2.419
			c0,1.412,0.416,2.684,1.248,3.818c0.831,1.134,2.23,1.7,4.195,1.7c1.31,0,2.331-0.189,3.061-0.567s1.286-0.907,1.663-1.587
			c0.379-0.68,0.616-1.524,0.718-2.533c0.1-1.008,0.151-2.117,0.151-3.326c0-1.41-0.051-2.57-0.151-3.477
			c-0.102-0.907-0.315-1.637-0.642-2.192c-0.329-0.554-0.783-1.008-1.361-1.36c-0.581-0.352-1.349-0.73-2.306-1.134l-5.518-2.268
			c-3.327-1.361-5.556-3.162-6.691-5.405c-1.134-2.242-1.7-5.052-1.7-8.429c0-2.015,0.276-3.931,0.831-5.745
			c0.554-1.814,1.373-3.375,2.458-4.687c1.083-1.31,2.456-2.356,4.12-3.138c1.662-0.78,3.602-1.172,5.82-1.172
			c1.915,0,3.666,0.353,5.253,1.059c1.588,0.706,2.948,1.638,4.083,2.797c1.134,1.16,2.003,2.457,2.608,3.893
			c0.605,1.437,0.907,2.911,0.907,4.422V665.289z"/>
		<path style="fill:#006355;" d="M644.719,649.792h7.71v53.824h-7.71V649.792z"/>
		<path style="fill:#006355;" d="M659.46,662.492c0-2.166,0.378-4.082,1.134-5.745c0.756-1.663,1.75-3.036,2.986-4.12
			c1.234-1.083,2.619-1.902,4.158-2.457c1.536-0.554,3.086-0.832,4.649-0.832c1.562,0,3.111,0.278,4.649,0.832
			c1.538,0.555,2.923,1.374,4.158,2.457c1.235,1.084,2.23,2.456,2.986,4.12c0.756,1.663,1.134,3.579,1.134,5.745v2.721h-7.71v-2.721
			c0-1.864-0.518-3.237-1.55-4.12c-1.033-0.881-2.256-1.323-3.666-1.323c-1.412,0-2.634,0.441-3.666,1.323
			c-1.033,0.882-1.55,2.256-1.55,4.12v28.423c0,1.865,0.517,3.239,1.55,4.12c1.032,0.882,2.255,1.323,3.666,1.323
			c1.411,0,2.633-0.44,3.666-1.323c1.032-0.881,1.55-2.255,1.55-4.12v-10.129h-6.124v-6.804h13.834v16.933
			c0,2.219-0.378,4.146-1.134,5.783c-0.756,1.638-1.751,2.999-2.986,4.082c-1.235,1.084-2.62,1.903-4.158,2.457
			c-1.538,0.554-3.087,0.832-4.649,0.832c-1.563,0-3.112-0.278-4.649-0.832c-1.539-0.554-2.924-1.373-4.158-2.457
			c-1.236-1.083-2.23-2.444-2.986-4.082c-0.756-1.637-1.134-3.565-1.134-5.783V662.492z"/>
		<path style="fill:#006355;" d="M691.814,649.792h7.408l11.642,32.43h0.151v-32.43h7.711v53.824h-7.257l-11.793-32.355h-0.151
			v32.355h-7.71V649.792z"/>
	</g>
	<path style="fill:#FFFFFF;" d="M527.195,299.15c0.045,9.332-0.992,66.037-30.843,132.578
		c-6.567,6.631-47.397,45.994-115.555,71.937c-13.64,0.065-128.495-2.178-227.32-93.334c86.34,94.052,199.96,98.436,212.409,98.632
		c-28.132,9.302-60.359,16.057-96.27,17.507c127.555,5.453,210.996-71.786,219.939-80.452
		c-13.315,26.47-31.326,54.034-55.694,80.452c94.052-86.341,98.436-199.961,98.632-212.409
		c9.302,28.132,16.057,60.359,17.507,96.271c2.124-49.693-8.768-94.21-22.803-128.718
		C527.197,281.612,527.298,289.62,527.195,299.15z"/>
</g>
</svg>
