<svg xmlns="http://www.w3.org/2000/svg" xmlns:xlink="http://www.w3.org/1999/xlink" viewBox="0 0 1885.43 798.08"><defs><style>.cls-1{fill:url(#radial-gradient);}</style><radialGradient id="radial-gradient" cx="942.72" cy="399.04" fx="1195.028863248443" fy="572.7611209881809" r="915.87" gradientTransform="translate(0 -196.52) scale(1 1.49)" gradientUnits="userSpaceOnUse"><stop offset="0.09" stop-color="#01a9b8"/><stop offset="0.88" stop-color="#fdfa03"/></radialGradient></defs><title>Asset 2</title><g id="Layer_2" data-name="Layer 2"><g id="Layer_1-2" data-name="Layer 1"><path class="cls-1" d="M1309.11,15.19l463.56,767.69h-124L1182.71,15.19h128.57M1774.43,0h-203V15.69h96.44l-175,278-163.73-278h92V0H1045.5V15.69h89.71l251.2,412.5-218.68,354.2h-92v15.69h213.06V782.39H1187.92L1396.5,445l204.09,337.39h-99.8v15.69h384.64V782.39h-93.07L1503,309.37,1687,15.69h87.48V0ZM250.23,15.54v767H118.71l30-.15V15.69l-30-.15H250.23M368.93,0H0V15.69H103.17v766.7H0v15.69H368.93V782.39H265.77V15.69H368.93V0Zm704.76,364.67H439v15.7h634.67v-15.7Z"/></g></g></svg>