<?xml version="1.0" encoding="utf-8"?>
<!-- Generator: Adobe Illustrator 19.2.0, SVG Export Plug-In . SVG Version: 6.00 Build 0)  -->
<!DOCTYPE svg PUBLIC "-//W3C//DTD SVG 1.1//EN" "http://www.w3.org/Graphics/SVG/1.1/DTD/svg11.dtd">
<svg version="1.1" id="Layer_2" xmlns="http://www.w3.org/2000/svg" xmlns:xlink="http://www.w3.org/1999/xlink" x="0px" y="0px"
	 viewBox="0 0 2994.3 849.1" style="enable-background:new 0 0 2994.3 849.1; background-color:#000;" xml:space="preserve">
<style type="text/css">
	.st0{fill:#FFFFFF;}
	.st1{opacity:5.000000e-02;fill:#FFFFFF;}
	.st2{opacity:0.1;fill:#FFFFFF;}
	.st3{opacity:0.4;fill:#FFFFFF;}
	.st4{opacity:0.3;fill:#FFFFFF;}
	.st5{opacity:0.2;fill:#FFFFFF;}
	.st6{fill:none;stroke:#FFFFFF;stroke-width:0.1;stroke-miterlimit:10;}
</style>

<g transform="rotate(-10 1502.6 424.7)">
	<circle class="st0" cx="1502.6" cy="424.7" r="69.4"/>
	<path class="st1" d="M1502.7,404.4c-49.5,0-89.5,9-89.5,20.1c0,11.1,40.1,20.1,89.5,20.1c49.5,0,89.5-9,89.5-20.1
		C1592.2,413.4,1552.1,404.4,1502.7,404.4z M1502.7,442.6c-44.4,0-80.4-8.1-80.4-18s36-18,80.4-18c44.4,0,80.4,8.1,80.4,18
		S1547.1,442.6,1502.7,442.6z"/>
	<path class="st2" d="M1502.7,399.7c-61.1,0-110.6,11.1-110.6,24.8c0,13.7,49.5,24.8,110.6,24.8c61.1,0,110.6-11.1,110.6-24.8
		C1613.3,410.8,1563.8,399.7,1502.7,399.7z M1502.7,444.6c-49.6,0-89.7-9-89.7-20.1s40.2-20.1,89.7-20.1c49.6,0,89.7,9,89.7,20.1
		S1552.2,444.6,1502.7,444.6z"/>
	<path class="st3" d="M1502.7,392.8c-78,0-141.3,14.2-141.3,31.7c0,17.5,63.3,31.7,141.3,31.7c78,0,141.3-14.2,141.3-31.7
		C1644,407,1580.7,392.8,1502.7,392.8z M1502.7,449.3c-61.1,0-110.6-11.1-110.6-24.8s49.5-24.8,110.6-24.8
		c61.1,0,110.6,11.1,110.6,24.8S1563.8,449.3,1502.7,449.3z"/>
	<path class="st4" d="M1502.7,387.6c-90.8,0-164.4,16.5-164.4,36.9c0,20.4,73.6,36.9,164.4,36.9c90.8,0,164.4-16.5,164.4-36.9
		C1667.1,404.1,1593.5,387.6,1502.7,387.6z M1502.7,457.5c-81.1,0-146.8-14.8-146.8-33s65.7-33,146.8-33c81.1,0,146.8,14.8,146.8,33
		S1583.8,457.5,1502.7,457.5z"/>
	<path class="st5" d="M1502.7,386.5c-93.4,0-169.1,17-169.1,38c0,21,75.7,38,169.1,38c93.4,0,169.1-17,169.1-38
		C1671.8,403.5,1596.1,386.5,1502.7,386.5z M1502.7,462.3c-93,0-168.5-16.9-168.5-37.8c0-20.9,75.4-37.8,168.5-37.8
		c93,0,168.5,16.9,168.5,37.8C1671.2,445.4,1595.7,462.3,1502.7,462.3z"/>
	
	/--Mimas--\
	<path id="mimas-orbit" class="st6" d="M1279.5,424.5a223,50.1 0 1,0 446,0a223,50.1 0 1,0 -446,0"/>
	<circle id="mimas" class="st0" r="0.2">
	<animateMotion begin="-.1min" dur=".9min" keyPoints="0;.5;1" calcMode="spline" keySplines=".6 .1 .4 .9;.6 .1 .4 .9" keyTimes="0;.5;1" repeatCount="indefinite">
	<mpath xlink:href="#mimas-orbit"/>
        </animateMotion>
	</circle>
	<g id="mimas-word">
	<path class="st0" d="M-5.6-13l0.2,0l1.3,2.8l2.2-2.2l0.2,0l-0.7,4.1l-0.2,0l0.7-3.8l-2.2,2.2l0,0l-1.3-2.8l-0.7,3.8l-0.2,0L-5.6-13
		z"/>
	<path class="st0" d="M-0.6-12.2l0.3,0l-0.1,0.4l-0.3,0L-0.6-12.2z M-0.8-11l0.2,0l-0.5,3l-0.2,0L-0.8-11z"/>
	<path class="st0" d="M0.5-10.8l0.2,0l-0.1,0.7c0.2-0.3,0.6-0.7,1.1-0.6c0.6,0.1,0.9,0.5,0.9,1c0.2-0.4,0.7-0.7,1.2-0.6
		c0.7,0.1,1,0.7,0.9,1.5L4.5-7L4.3-7l0.3-1.8c0.1-0.7-0.2-1.2-0.8-1.3c-0.5-0.1-1.1,0.3-1.2,1L2.3-7.4l-0.2,0l0.3-1.8
		c0.1-0.7-0.2-1.2-0.8-1.3c-0.5-0.1-1.1,0.3-1.2,1L0.2-7.8L0-7.8L0.5-10.8z"/>
	<path class="st0" d="M5.4-7.7L5.4-7.7c0.1-0.6,0.7-0.9,1.5-0.7c0.4,0.1,0.8,0.2,1,0.4l0-0.2C8.1-9,7.8-9.4,7.1-9.5
		c-0.4-0.1-0.7,0-1,0.1l0-0.2c0.4-0.1,0.7-0.1,1.1-0.1C7.6-9.6,7.9-9.4,8-9.2c0.2,0.2,0.2,0.5,0.1,0.9L7.9-6.4l-0.2,0l0.1-0.6
		C7.6-6.8,7.1-6.5,6.4-6.6C5.8-6.7,5.3-7.1,5.4-7.7z M7.9-7.5l0.1-0.4C7.7-8,7.3-8.2,6.9-8.3C6.2-8.4,5.7-8.2,5.6-7.7l0,0
		C5.6-7.2,6-6.8,6.4-6.8C7.2-6.6,7.8-7,7.9-7.5z"/>
	<path class="st0" d="M8.7-6.7l0.1-0.1c0.3,0.3,0.7,0.5,1,0.6c0.5,0.1,0.9-0.1,1-0.5l0,0c0.1-0.4-0.4-0.6-0.8-0.8
		c-0.5-0.3-1-0.5-0.9-1l0,0c0.1-0.4,0.5-0.7,1.2-0.6c0.3,0.1,0.7,0.2,1,0.5l-0.1,0.1c-0.2-0.3-0.6-0.4-0.9-0.5
		C9.8-9,9.4-8.8,9.4-8.5l0,0c-0.1,0.4,0.3,0.6,0.8,0.8c0.5,0.2,1,0.5,0.9,1l0,0C10.9-6.1,10.4-5.9,9.8-6C9.4-6.1,9-6.3,8.7-6.7z"/>
		<animateMotion begin="-.1min" dur=".9min" keyPoints="0;.5;1" calcMode="spline" keySplines=".6 .1 .4 .9;.6 .1 .4 .9" keyTimes="0;.5;1" repeatCount="indefinite">
	<mpath xlink:href="#mimas-orbit"/>
        </animateMotion>
</g>
	
	/--Enceladus--\
	<path id="enceladus-orbit" class="st6" d="M1214.1,424.5a288.4,64.7 0 1,0 576.8,0a288.4,64.7 0 1,0 -576.8,0"/>
	<circle id="enceladus" class="st0" r="0.3">
	<animateMotion begin="-1.2min" dur="1.4min" keyPoints="0;.5;1" calcMode="spline" keySplines=".6 .1 .4 .9;.6 .1 .4 .9" keyTimes="0;.5;1" repeatCount="indefinite">
	<mpath xlink:href="#enceladus-orbit"/>
        </animateMotion>
	</circle>
	<g id="enceladus-word">
	<path class="st0" d="M-11.2-14l2.9,0.5l0,0.2l-2.7-0.5l-0.3,1.8l2.5,0.4l0,0.2l-2.5-0.4l-0.3,1.8L-9-9.6l0,0.2l-2.9-0.5L-11.2-14z"
		/>
	<path class="st0" d="M-7.5-12.2l0.2,0l-0.1,0.7c0.2-0.3,0.6-0.7,1.3-0.6c0.8,0.1,1.1,0.7,1,1.5l-0.3,1.7l-0.2,0l0.3-1.7
		c0.1-0.7-0.2-1.2-0.9-1.3c-0.6-0.1-1.2,0.3-1.3,1l-0.3,1.7l-0.2,0L-7.5-12.2z"/>
	<path class="st0" d="M-4.4-10.1L-4.4-10.1c0.1-0.9,0.9-1.4,1.8-1.3c0.6,0.1,0.9,0.4,1.1,0.8l-0.2,0.1c-0.2-0.3-0.5-0.6-1-0.7
		c-0.8-0.1-1.4,0.4-1.6,1.1l0,0c-0.1,0.8,0.3,1.5,1.1,1.6C-2.6-8.4-2.3-8.5-2-8.8l0.1,0.1c-0.3,0.3-0.8,0.5-1.3,0.4
		C-4-8.4-4.6-9.3-4.4-10.1z"/>
	<path class="st0" d="M-1.2-9.5L-1.2-9.5c0.2-0.9,0.9-1.5,1.7-1.3c0.9,0.2,1.2,1,1.1,1.8c0,0,0,0,0,0.1L-1-9.4
		c-0.1,0.8,0.4,1.4,1,1.5C0.5-7.8,1-8,1.3-8.2l0.1,0.1C1-7.8,0.6-7.6,0-7.7C-0.8-7.9-1.3-8.6-1.2-9.5z M1.4-9.2
		c0.1-0.7-0.2-1.4-0.9-1.5c-0.7-0.1-1.3,0.3-1.4,1.1L1.4-9.2z"/>
	<path class="st0" d="M3-11.7l0.2,0L2.5-7.4l-0.2,0L3-11.7z"/>
	<path class="st0" d="M3.5-8L3.5-8C3.6-8.7,4.2-8.9,5-8.8c0.4,0.1,0.8,0.2,1,0.4l0-0.2c0.1-0.7-0.2-1.1-0.9-1.2
		c-0.4-0.1-0.7,0-1,0.1l0-0.2C4.5-10,4.8-10.1,5.2-10c0.4,0.1,0.7,0.2,0.9,0.5C6.3-9.3,6.3-9,6.2-8.6L5.9-6.7l-0.2,0l0.1-0.6
		C5.6-7.1,5.2-6.8,4.5-6.9C3.9-7,3.4-7.4,3.5-8z M5.9-7.9L6-8.2C5.7-8.4,5.4-8.5,5-8.6C4.3-8.7,3.8-8.5,3.7-8l0,0
		C3.6-7.5,4-7.2,4.5-7.1C5.2-7,5.8-7.3,5.9-7.9z"/>
	<path class="st0" d="M7-8.1L7-8.1C7.2-9,8-9.5,8.8-9.4c0.7,0.1,1,0.6,1.2,1.1l0.4-2.1l0.2,0L9.7-6.1l-0.2,0l0.1-0.8
		C9.4-6.5,8.9-6.2,8.2-6.3C7.4-6.4,6.9-7.2,7-8.1z M9.8-7.6L9.8-7.6C10-8.4,9.5-9.1,8.8-9.2C8-9.3,7.4-8.9,7.2-8.1l0,0
		c-0.1,0.8,0.3,1.5,1,1.6C9-6.3,9.7-6.8,9.8-7.6z"/>
	<path class="st0" d="M11-7.1l0.3-1.7l0.2,0l-0.3,1.7c-0.1,0.7,0.2,1.2,0.9,1.3c0.6,0.1,1.2-0.3,1.3-1l0.3-1.7l0.2,0l-0.5,3l-0.2,0
		l0.1-0.7c-0.2,0.3-0.6,0.7-1.3,0.6C11.2-5.7,10.9-6.3,11-7.1z"/>
	<path class="st0" d="M14.2-5.7l0.1-0.1c0.3,0.3,0.7,0.5,1,0.6c0.5,0.1,0.9-0.1,1-0.5l0,0c0.1-0.4-0.4-0.6-0.8-0.8
		c-0.5-0.3-1-0.5-0.9-1l0,0c0.1-0.4,0.5-0.7,1.2-0.6c0.3,0.1,0.7,0.2,1,0.5l-0.1,0.1c-0.2-0.3-0.6-0.4-0.9-0.5
		C15.3-8,15-7.8,14.9-7.5l0,0c-0.1,0.4,0.3,0.6,0.8,0.8c0.5,0.2,1,0.5,0.9,1l0,0C16.5-5.2,16-4.9,15.4-5C14.9-5.1,14.5-5.3,14.2-5.7
		z"/>
		<animateMotion begin="-1.2min" dur="1.4min" keyPoints="0;.5;1" calcMode="spline" keySplines=".6 .1 .4 .9;.6 .1 .4 .9" keyTimes="0;.5;1" repeatCount="indefinite">
	<mpath xlink:href="#enceladus-orbit"/>
        </animateMotion>
</g>
	
	/--Tethys--\
	<path id="tethys-orbit" class="st6" d="M1148.4,424.5a354.1,79.5 0 1,0 708.2,0a354.1,79.5 0 1,0 -708.2,0"/>
	<circle id="tethys" class="st0" r="0.6">
	<animateMotion begin="-1.2min" dur="1.9min" keyPoints="0;.5;1" calcMode="spline" keySplines=".6 .1 .4 .9;.6 .1 .4 .9" keyTimes="0;.5;1" repeatCount="indefinite">
	<mpath xlink:href="#tethys-orbit"/>
        </animateMotion>
	</circle>
	<g id="tethys-word">
	<path class="st0" d="M-4.8-12.8L-6.2-13l0-0.2l3.1,0.6l0,0.2l-1.5-0.3l-0.7,4l-0.2,0L-4.8-12.8z"/>
	<path class="st0" d="M-3.7-10L-3.7-10c0.2-0.9,0.9-1.5,1.7-1.3c0.9,0.2,1.2,1,1.1,1.8c0,0,0,0,0,0.1l-2.6-0.5
		c-0.1,0.8,0.4,1.4,1,1.5C-2-8.3-1.6-8.5-1.3-8.7l0.1,0.1c-0.3,0.3-0.8,0.5-1.3,0.4C-3.3-8.3-3.9-9.1-3.7-10z M-1.1-9.7
		C-1-10.3-1.3-11-2-11.2c-0.7-0.1-1.3,0.3-1.4,1.1L-1.1-9.7z"/>
	<path class="st0" d="M0-8.6l0.4-2l-0.5-0.1l0-0.2l0.5,0.1l0.2-1l0.2,0l-0.2,1l1.1,0.2l0,0.2l-1.1-0.2l-0.4,2
		C0.1-8.2,0.3-7.9,0.7-7.8c0.1,0,0.3,0,0.5,0l0,0.2c-0.2,0-0.3,0-0.5,0C0.2-7.8-0.1-8.1,0-8.6z"/>
	<path class="st0" d="M2.7-11.8l0.2,0l-0.4,2c0.2-0.3,0.6-0.7,1.3-0.6c0.8,0.1,1.1,0.7,1,1.5L4.5-7l-0.2,0l0.3-1.7
		c0.1-0.7-0.2-1.2-0.9-1.3c-0.6-0.1-1.2,0.3-1.3,1L2.2-7.5L2-7.5L2.7-11.8z"/>
	<path class="st0" d="M5.1-6.1l0.1-0.1C5.3-6.1,5.5-6.1,5.7-6C6-6,6.2-6.1,6.6-6.7L5.7-9.9l0.2,0l0.8,3l1.7-2.6l0.2,0L6.7-6.6
		C6.3-5.9,6-5.8,5.6-5.9C5.4-5.9,5.2-6,5.1-6.1z"/>
	<path class="st0" d="M8.6-6.7l0.1-0.1c0.3,0.3,0.7,0.5,1,0.6c0.5,0.1,0.9-0.1,1-0.5l0,0c0.1-0.4-0.4-0.6-0.8-0.8
		c-0.5-0.3-1-0.5-0.9-1l0,0C9.1-9,9.6-9.3,10.2-9.2c0.3,0.1,0.7,0.2,1,0.5L11-8.5c-0.2-0.3-0.6-0.4-0.9-0.5C9.7-9.1,9.3-8.9,9.2-8.5
		l0,0C9.2-8.2,9.6-8,10-7.7c0.5,0.2,1,0.5,0.9,1l0,0C10.8-6.2,10.3-6,9.7-6.1C9.3-6.1,8.8-6.4,8.6-6.7z"/>
		<animateMotion begin="-1.2min" dur="1.9min" keyPoints="0;.5;1" calcMode="spline" keySplines=".6 .1 .4 .9;.6 .1 .4 .9" keyTimes="0;.5;1" repeatCount="indefinite">
	<mpath xlink:href="#tethys-orbit"/>
        </animateMotion>
</g>
	
	/--Dione--\
	<path id="dione-orbit" class="st6" d="M1048.9,424.5a453.6,101.8 0 1,0 907.2,0a453.6,101.8 0 1,0 -907.2,0"/>
	<circle id="dione" class="st0" r="0.7">
	<animateMotion begin="0s" dur="2.7min" keyPoints="0;.5;1" calcMode="spline" keySplines=".6 .1 .4 .9;.6 .1 .4 .9" keyTimes="0;.5;1" repeatCount="indefinite">
	<mpath xlink:href="#dione-orbit"/>
        </animateMotion>
	</circle>
	<g id="dione-word">
	<path class="st0" d="M-4.9-12.9l1.3,0.2c1.3,0.2,2,1.3,1.8,2.4l0,0C-1.9-9-3-8.3-4.3-8.5l-1.3-0.2L-4.9-12.9z M-4.2-8.7
		c1.2,0.2,2.1-0.5,2.3-1.5l0,0c0.2-1-0.5-2-1.7-2.2l-1.1-0.2l-0.7,3.8L-4.2-8.7z"/>
	<path class="st0" d="M-0.3-12.1l0.3,0l-0.1,0.4l-0.3,0L-0.3-12.1z M-0.5-10.9l0.2,0l-0.5,3L-1-8L-0.5-10.9z"/>
	<path class="st0" d="M0.3-9.2L0.3-9.2c0.1-0.8,0.9-1.5,1.8-1.3c0.9,0.2,1.4,1,1.3,1.8l0,0C3.3-7.9,2.5-7.3,1.6-7.4
		C0.7-7.6,0.2-8.4,0.3-9.2z M3.2-8.7L3.2-8.7c0.1-0.8-0.3-1.5-1.1-1.6C1.3-10.5,0.7-10,0.5-9.2l0,0C0.4-8.5,0.9-7.7,1.6-7.6
		C2.4-7.5,3.1-8,3.2-8.7z"/>
	<path class="st0" d="M4.6-10l0.2,0L4.6-9.3C4.8-9.6,5.3-10,5.9-9.9c0.8,0.1,1.1,0.7,1,1.5L6.6-6.6l-0.2,0l0.3-1.7
		c0.1-0.7-0.2-1.2-0.9-1.3c-0.6-0.1-1.2,0.3-1.3,1L4.2-7L4-7.1L4.6-10z"/>
	<path class="st0" d="M7.7-8L7.7-8c0.2-0.9,0.9-1.5,1.7-1.3c0.9,0.2,1.2,1,1.1,1.8c0,0,0,0,0,0.1L7.9-7.9C7.8-7,8.3-6.4,8.9-6.3
		c0.5,0.1,0.9-0.1,1.2-0.4l0.1,0.1C9.9-6.2,9.4-6,8.9-6.1C8.1-6.3,7.5-7,7.7-8z M10.3-7.6c0.1-0.7-0.2-1.4-0.9-1.5
		C8.7-9.2,8.1-8.8,7.9-8L10.3-7.6z"/>
		<animateMotion begin="0s" dur="2.7min" keyPoints="0;.5;1" calcMode="spline" keySplines=".6 .1 .4 .9;.6 .1 .4 .9" keyTimes="0;.5;1" repeatCount="indefinite">
	<mpath xlink:href="#dione-orbit"/>
        </animateMotion>
</g>
	
	/--Rhea--\
	<path id="rhea-orbit" class="st6" d="M869,424.5a633.5,142.2 0 1,0 1267,0a633.5,142.2 0 1,0 -1267,0"/>
	<circle id="rhea" class="st0" r="0.9">
	<animateMotion begin="-2min" dur="4.5min" keyPoints="0;.5;1" calcMode="spline" keySplines=".6 .1 .4 .9;.6 .1 .4 .9" keyTimes="0;.5;1" repeatCount="indefinite">
	<mpath xlink:href="#rhea-orbit"/>
        </animateMotion>
	</circle>
	<g id="rhea-word">
	<path class="st0" d="M-3.8-12.8l1.7,0.3c0.5,0.1,0.9,0.3,1.1,0.6c0.2,0.2,0.2,0.5,0.2,0.8l0,0c-0.1,0.7-0.7,1-1.5,0.9l1.1,2l-0.3,0
		l-1-2l0,0L-4-10.4l-0.3,1.8l-0.2,0L-3.8-12.8z M-2.5-10.3c0.9,0.1,1.4-0.2,1.5-0.8l0,0c0.1-0.6-0.3-1.1-1.1-1.2l-1.5-0.3l-0.4,2
		L-2.5-10.3z"/>
	<path class="st0" d="M0.5-12.2l0.2,0l-0.4,2c0.2-0.3,0.6-0.7,1.3-0.6c0.8,0.1,1.1,0.7,1,1.5L2.3-7.4l-0.2,0l0.3-1.7
		c0.1-0.7-0.2-1.2-0.9-1.3c-0.6-0.1-1.2,0.3-1.3,1l-0.3,1.7l-0.2,0L0.5-12.2z"/>
	<path class="st0" d="M3.4-8.8L3.4-8.8c0.2-0.9,0.9-1.5,1.7-1.3c0.9,0.2,1.2,1,1.1,1.8c0,0,0,0,0,0.1L3.6-8.7
		c-0.1,0.8,0.4,1.4,1,1.5c0.5,0.1,0.9-0.1,1.2-0.4l0.1,0.1C5.6-7.1,5.1-6.9,4.6-7C3.8-7.1,3.2-7.8,3.4-8.8z M6-8.4
		C6-9.1,5.8-9.8,5-9.9C4.3-10,3.8-9.6,3.6-8.9L6-8.4z"/>
	<path class="st0" d="M6.7-7.5L6.7-7.5c0.1-0.6,0.7-0.9,1.5-0.7c0.4,0.1,0.8,0.2,1,0.4l0-0.2C9.3-8.8,9-9.2,8.3-9.3
		c-0.4-0.1-0.7,0-1,0.1l0-0.2C7.6-9.5,8-9.6,8.4-9.5C8.8-9.4,9.1-9.3,9.3-9c0.2,0.2,0.2,0.5,0.1,0.9L9.1-6.2l-0.2,0L9-6.9
		C8.8-6.6,8.3-6.3,7.6-6.4C7-6.5,6.5-6.9,6.7-7.5z M9.1-7.4l0.1-0.4C8.9-7.9,8.5-8,8.1-8.1C7.4-8.2,6.9-8,6.9-7.5l0,0
		C6.8-7,7.2-6.7,7.7-6.6C8.4-6.5,9-6.8,9.1-7.4z"/>
		<animateMotion begin="-2min" dur="4.5min" keyPoints="0;.5;1" calcMode="spline" keySplines=".6 .1 .4 .9;.6 .1 .4 .9" keyTimes="0;.5;1" repeatCount="indefinite">
	<mpath xlink:href="#rhea-orbit"/>
        </animateMotion>
</g>
	
	/--Titan--\
	<path id="titan-orbit" class="st6" d="M34,424.5a1468.6,329.7 0 1,0 2937.2,0a1468.6,329.7 0 1,0 -2937.2,0"/>
	<circle id="titan" class="st0" r="3.1">
	<animateMotion begin="-10min" dur="16min" keyPoints="0;.5;1" calcMode="spline" keySplines=".6 .1 .4 .9;.6 .1 .4 .9" keyTimes="0;.5;1" repeatCount="indefinite">
	<mpath xlink:href="#titan-orbit"/>
        </animateMotion>
	</circle>
	<g id="titan-word">
	<path class="st0" d="M-2.5-12.3L-4-12.6l0-0.2l3.1,0.6l0,0.2l-1.5-0.3l-0.7,4l-0.2,0L-2.5-12.3z"/>
	<path class="st0" d="M-0.3-12.1l0.3,0l-0.1,0.4l-0.3,0L-0.3-12.1z M-0.4-10.9l0.2,0l-0.5,3L-1-8L-0.4-10.9z"/>
	<path class="st0" d="M0.7-8.5l0.4-2l-0.5-0.1l0-0.2l0.5,0.1l0.2-1l0.2,0l-0.2,1l1.1,0.2l0,0.2l-1.1-0.2l-0.4,2C0.8-8,1-7.7,1.4-7.7
		c0.1,0,0.3,0,0.5,0l0,0.2c-0.2,0-0.3,0-0.5,0C0.8-7.6,0.6-7.9,0.7-8.5z"/>
	<path class="st0" d="M2.5-8.2L2.5-8.2C2.6-8.8,3.3-9.1,4-8.9c0.4,0.1,0.8,0.2,1,0.4l0-0.2C5.2-9.5,4.9-9.9,4.2-10
		c-0.4-0.1-0.7,0-1,0.1l0-0.2c0.4-0.1,0.7-0.1,1.1-0.1C4.7-10.1,5-9.9,5.1-9.7c0.2,0.2,0.2,0.5,0.1,0.9L5-6.9l-0.2,0l0.1-0.6
		C4.7-7.3,4.2-7,3.5-7.1C2.9-7.2,2.4-7.6,2.5-8.2z M5-8L5-8.4C4.8-8.6,4.4-8.7,4-8.8C3.3-8.9,2.8-8.7,2.7-8.2l0,0
		C2.7-7.7,3.1-7.4,3.5-7.3C4.3-7.1,4.9-7.5,5-8z"/>
	<path class="st0" d="M6.5-9.7l0.2,0L6.6-9c0.2-0.3,0.6-0.7,1.3-0.6C8.7-9.4,9-8.8,8.9-8L8.6-6.3l-0.2,0L8.7-8
		c0.1-0.7-0.2-1.2-0.9-1.3c-0.6-0.1-1.2,0.3-1.3,1L6.2-6.7L6-6.7L6.5-9.7z"/>
		<animateMotion begin="-10min" dur="16min" keyPoints="0;.5;1" calcMode="spline" keySplines=".6 .1 .4 .9;.6 .1 .4 .9" keyTimes="0;.5;1" repeatCount="indefinite">
	<mpath xlink:href="#titan-orbit"/>
        </animateMotion>
</g>
</g>
</svg>
